<?xml version="1.0" encoding="utf-8"?><!-- Uploaded to: SVG Repo, www.svgrepo.com, Generator: SVG Repo Mixer Tools -->
<svg width="800px" height="800px" viewBox="0 0 24 24" fill="currentColor" xmlns="http://www.w3.org/2000/svg" stroke="currentColor">
<path fill-rule="evenodd" clip-rule="evenodd" d="M18.7035 9.84752L18.5148 9.90648L18.5148 9.90649L18.5147 9.90651L18.5146 9.90655L18.514 9.90673L18.5095 9.9081L18.4891 9.91427C18.4705 9.91985 18.4419 9.9283 18.4038 9.93922C18.3275 9.96108 18.213 9.99282 18.0639 10.0313C17.7657 10.1082 17.3292 10.212 16.7825 10.3172C15.6887 10.5278 14.1587 10.7433 12.415 10.7641H12.3985C10.6558 10.7537 9.12676 10.5383 8.03362 10.3253C7.48739 10.2189 7.05132 10.1133 6.75343 10.0349C6.60453 9.99566 6.49025 9.96325 6.41412 9.94094C6.37605 9.92978 6.34753 9.92115 6.32899 9.91546L6.30873 9.90918L6.30433 9.90779L6.30379 9.90762L6.30364 9.90757L6.30357 9.90755L6.30356 9.90755L6.17474 9.86629C6.17318 9.80253 6.17218 9.74223 6.17218 9.69191C6.17218 5.85643 7.97465 2 12.4389 2C16.8822 2 18.7056 5.85643 18.7056 9.69191C18.7056 9.73726 18.7048 9.79073 18.7035 9.84752ZM17.239 13.7108C18.0943 13.5421 18.9333 13.3372 19.7082 13.1054L19.7349 13.0974C19.9203 13.5999 20.0904 14.0977 20.2356 14.5334C21.0949 17.2581 20.8015 18.3898 20.6548 18.4318C20.1937 18.4946 18.8942 16.3778 18.8942 16.3778C18.8942 18.5156 16.945 21.8271 12.5018 21.848H12.376C7.93273 21.8271 5.98355 18.5365 5.98355 16.3778C5.98355 16.3778 4.66314 18.4946 4.22301 18.4318C4.01342 18.4108 3.72 17.279 4.57931 14.5334C4.72454 14.0977 4.89461 13.5999 5.07996 13.0974L5.10677 13.1054C5.883 13.3376 6.72588 13.5428 7.58503 13.7117C7.50319 14.3972 7.47155 15.1921 7.53453 16.1053C7.72316 19.1653 9.54658 21.0935 12.3551 21.1145H12.4808C15.2893 21.0935 17.1127 19.1653 17.3014 16.1053C17.3486 15.1917 17.313 14.3965 17.239 13.7108ZM12.4179 8.14097C14.4509 8.14097 16.0648 8.53919 16.2324 8.89549C16.2324 8.91645 16.2324 8.93741 16.2115 8.93741C16.2115 8.95836 16.2115 8.97932 16.1905 9.00028C16.0648 9.18891 14.2413 10.174 12.397 10.174H12.376C10.5316 10.174 8.7082 9.18891 8.58245 9.00028C8.56149 8.97933 8.56149 8.95837 8.56149 8.93741V8.93741C8.56149 8.93741 8.58245 8.91645 8.58245 8.89549C8.75012 8.53919 10.3849 8.14097 12.397 8.14097H12.4179ZM10.8251 7.65891C10.2173 7.67987 9.6933 6.98823 9.67234 6.12892C9.63042 5.24865 10.1125 4.51509 10.6993 4.49413C11.3071 4.47317 11.8101 5.16481 11.8521 6.02412C11.894 6.9044 11.4329 7.63795 10.8251 7.65891ZM15.1426 6.12892C15.1007 7.00919 14.5977 7.70083 13.9899 7.65891C13.3821 7.63795 12.921 6.9044 12.9629 6.02412C13.0048 5.14385 13.5078 4.45221 14.1156 4.49413C14.7234 4.51509 15.1845 5.24865 15.1426 6.12892Z" fill="#040000"/>
<path fill-rule="evenodd" clip-rule="evenodd" d="M12.418 11.2641C15.981 11.2221 18.6637 10.3838 18.6637 10.3838L19.5649 12.6264C17.3223 13.2971 14.5348 13.7372 12.418 13.7163H12.397C12.0258 13.72 11.6322 13.7092 11.2233 13.6853V16.378C9.84001 16.5667 8.45673 16.2942 8.45673 16.2942V13.3627C7.35087 13.176 6.24478 12.9239 5.25003 12.6264L6.15126 10.3838C6.15126 10.4047 8.83399 11.2431 12.397 11.2641H12.418Z" fill="#040000"/>
<path d="M12.397 21.7642C10.6574 21.7642 9.06451 21.1774 8.01657 20.318C7.4926 20.4648 6.82192 20.7163 6.40274 21.0306C6.04644 21.3031 6.08836 21.5756 6.15123 21.6804C6.44466 22.1624 11.0556 21.9947 12.397 21.848V21.7642Z" stroke="#040000"/>
<path d="M12.397 21.7642C14.1366 21.7642 15.7294 21.1774 16.7774 20.318C17.3013 20.4648 17.972 20.7163 18.3912 21.0306C18.7475 21.3031 18.7056 21.5756 18.6427 21.6804C18.3493 22.1624 13.7383 21.9947 12.397 21.848V21.7642Z" stroke="#040000"/>
<path d="M11.5586 6.14986C11.5796 6.50616 11.391 6.79958 11.1395 6.8415C10.8879 6.88342 10.6364 6.63191 10.6155 6.27561C10.5945 5.91931 10.7832 5.62589 11.0347 5.58397C11.3071 5.54205 11.5377 5.79356 11.5586 6.14986ZM13.2353 6.25465C13.2982 6.14986 13.6545 5.64685 14.409 5.83547C14.5977 5.87739 14.7025 5.96123 14.7234 5.98219C14.7444 6.0241 14.7653 6.08698 14.7234 6.17082C14.6605 6.31753 14.5558 6.31753 14.4719 6.29657C14.43 6.27561 13.906 5.91931 13.424 6.44328C13.3821 6.4852 13.3401 6.4852 13.2773 6.44328C13.2144 6.40137 13.1934 6.31753 13.2353 6.25465Z" fill="#040000"/>
</svg>